<?xml version="1.0" encoding="utf-8"?>
<!-- Generator: Adobe Illustrator 19.2.1, SVG Export Plug-In . SVG Version: 6.00 Build 0)  -->
<svg version="1.1" id="Слой_1" xmlns="http://www.w3.org/2000/svg" xmlns:xlink="http://www.w3.org/1999/xlink" x="0px" y="0px"
	 viewBox="0 0 841.9 595.3" style="enable-background:new 0 0 841.9 595.3;" xml:space="preserve">
<style type="text/css">
	.st0{fill:#F7EC66;stroke:#000000;stroke-miterlimit:10;}
	.st1{fill:none;stroke:#000000;stroke-miterlimit:10;}
	.st2{font-family:'MyriadPro-Regular';}
	.st3{font-size:20.7391px;}
	.st4{fill:none;stroke:#9F9F9F;stroke-width:2;stroke-linecap:round;stroke-miterlimit:10;}
	.st5{fill:none;stroke:#404040;stroke-width:2;stroke-linecap:round;stroke-miterlimit:10;}
	.st6{fill:none;stroke:#808080;stroke-width:2;stroke-linecap:round;stroke-miterlimit:10;}
	.st7{fill:none;stroke:#DFDFDF;stroke-width:2;stroke-linecap:round;stroke-miterlimit:10;}
	.st8{fill:none;stroke:#000000;stroke-width:2;stroke-linecap:round;stroke-miterlimit:10;}
	.st9{fill:#9F9F9F;stroke:#000000;stroke-width:0.5;stroke-miterlimit:10;}
	.st10{fill:#404040;stroke:#000000;stroke-width:0.5;stroke-miterlimit:10;}
	.st11{fill:#808080;stroke:#000000;stroke-width:0.5;stroke-miterlimit:10;}
	.st12{fill:#DFDFDF;stroke:#000000;stroke-width:0.5;stroke-miterlimit:10;}
	.st13{stroke:#000000;stroke-width:0.5;stroke-miterlimit:10;}
</style>
<rect x="76.8" y="88.1" class="st0" width="674.7" height="377.8"/>
<g>
	<line class="st1" x1="157.1" y1="435" x2="599.5" y2="435"/>
	<g>
		<g>
			<line class="st1" x1="157.1" y1="435" x2="157.1" y2="429.2"/>
			<line class="st1" x1="220.3" y1="435" x2="220.3" y2="429.2"/>
			<line class="st1" x1="283.5" y1="435" x2="283.5" y2="429.2"/>
			<line class="st1" x1="346.7" y1="435" x2="346.7" y2="429.2"/>
			<line class="st1" x1="409.9" y1="435" x2="409.9" y2="429.2"/>
			<line class="st1" x1="473.1" y1="435" x2="473.1" y2="429.2"/>
			<line class="st1" x1="536.3" y1="435" x2="536.3" y2="429.2"/>
			<line class="st1" x1="599.5" y1="435" x2="599.5" y2="429.2"/>
		</g>
		<g>
		</g>
	</g>
</g>
<g>
	<g>
		<text transform="matrix(1 0 0 1 139.5239 442.8223)" class="st2 st3">0</text>
		<text transform="matrix(1 0 0 1 139.5239 395.9521)" class="st2 st3">5</text>
		<text transform="matrix(1 0 0 1 128.8848 349.0811)" class="st2 st3">10</text>
		<text transform="matrix(1 0 0 1 128.8848 302.2109)" class="st2 st3">15</text>
		<text transform="matrix(1 0 0 1 128.8848 255.3398)" class="st2 st3">20</text>
		<text transform="matrix(1 0 0 1 128.8848 208.4692)" class="st2 st3">25</text>
	</g>
	<line class="st1" x1="157.1" y1="435" x2="157.1" y2="200.7"/>
	<g>
		<g>
			<line class="st1" x1="157.1" y1="435" x2="168.1" y2="435"/>
			<line class="st1" x1="157.1" y1="388.2" x2="168.1" y2="388.2"/>
			<line class="st1" x1="157.1" y1="341.3" x2="168.1" y2="341.3"/>
			<line class="st1" x1="157.1" y1="294.4" x2="168.1" y2="294.4"/>
			<line class="st1" x1="157.1" y1="247.6" x2="168.1" y2="247.6"/>
			<line class="st1" x1="157.1" y1="200.7" x2="168.1" y2="200.7"/>
		</g>
		<g>
		</g>
	</g>
</g>
<g>
	<g>
		<line class="st4" x1="631.2" y1="212.4" x2="686.5" y2="212.4"/>
		<g>
			<line class="st4" x1="251.9" y1="388.2" x2="188.7" y2="435"/>
			<line class="st4" x1="315.1" y1="397.5" x2="251.9" y2="388.2"/>
			<line class="st4" x1="378.3" y1="313.2" x2="315.1" y2="397.5"/>
			<line class="st4" x1="441.5" y1="435" x2="378.3" y2="313.2"/>
			<line class="st4" x1="504.7" y1="397.5" x2="441.5" y2="435"/>
			<line class="st4" x1="567.9" y1="435" x2="504.7" y2="397.5"/>
		</g>
	</g>
	<g>
		<line class="st5" x1="631.2" y1="247.6" x2="686.5" y2="247.6"/>
		<g>
			<line class="st5" x1="251.9" y1="285.1" x2="188.7" y2="228.8"/>
			<line class="st5" x1="315.1" y1="388.2" x2="251.9" y2="285.1"/>
			<line class="st5" x1="378.3" y1="397.5" x2="315.1" y2="388.2"/>
			<line class="st5" x1="441.5" y1="435" x2="378.3" y2="397.5"/>
			<line class="st5" x1="504.7" y1="378.8" x2="441.5" y2="435"/>
			<line class="st5" x1="567.9" y1="435" x2="504.7" y2="378.8"/>
		</g>
	</g>
	<g>
		<line class="st6" x1="631.2" y1="282.7" x2="686.5" y2="282.7"/>
		<g>
			<line class="st6" x1="251.9" y1="360.1" x2="188.7" y2="285.1"/>
			<line class="st6" x1="315.1" y1="275.7" x2="251.9" y2="360.1"/>
			<line class="st6" x1="378.3" y1="322.6" x2="315.1" y2="275.7"/>
			<line class="st6" x1="441.5" y1="350.7" x2="378.3" y2="322.6"/>
			<line class="st6" x1="504.7" y1="388.2" x2="441.5" y2="350.7"/>
			<line class="st6" x1="567.9" y1="435" x2="504.7" y2="388.2"/>
		</g>
	</g>
	<g>
		<line class="st7" x1="631.2" y1="317.9" x2="686.5" y2="317.9"/>
		<g>
			<line class="st7" x1="251.9" y1="360.1" x2="188.7" y2="388.2"/>
			<line class="st7" x1="315.1" y1="425.7" x2="251.9" y2="360.1"/>
			<line class="st7" x1="378.3" y1="435" x2="315.1" y2="425.7"/>
			<line class="st7" x1="441.5" y1="416.3" x2="378.3" y2="435"/>
			<line class="st7" x1="504.7" y1="406.9" x2="441.5" y2="416.3"/>
			<line class="st7" x1="567.9" y1="435" x2="504.7" y2="406.9"/>
		</g>
	</g>
	<g>
		<line class="st8" x1="631.2" y1="353" x2="686.5" y2="353"/>
		<g>
			<line class="st8" x1="251.9" y1="331.9" x2="188.7" y2="341.3"/>
			<line class="st8" x1="315.1" y1="378.8" x2="251.9" y2="331.9"/>
			<line class="st8" x1="378.3" y1="360.1" x2="315.1" y2="378.8"/>
			<line class="st8" x1="441.5" y1="416.3" x2="378.3" y2="360.1"/>
			<line class="st8" x1="504.7" y1="435" x2="441.5" y2="416.3"/>
			<line class="st8" x1="567.9" y1="435" x2="504.7" y2="435"/>
		</g>
	</g>
</g>
<g>
	<g>
		<rect x="655.8" y="209.4" class="st9" width="6" height="6"/>
		<g>
			<rect x="185.7" y="432" class="st9" width="6" height="6"/>
			<rect x="248.9" y="385.2" class="st9" width="6" height="6"/>
			<rect x="312.1" y="394.5" class="st9" width="6" height="6"/>
			<rect x="375.3" y="310.2" class="st9" width="6" height="6"/>
			<rect x="438.5" y="432" class="st9" width="6" height="6"/>
			<rect x="501.7" y="394.5" class="st9" width="6" height="6"/>
			<rect x="564.9" y="432" class="st9" width="6" height="6"/>
		</g>
	</g>
	<g>
		<rect x="655.8" y="244.6" class="st10" width="6" height="6"/>
		<g>
			<rect x="185.7" y="225.8" class="st10" width="6" height="6"/>
			<rect x="248.9" y="282.1" class="st10" width="6" height="6"/>
			<rect x="312.1" y="385.2" class="st10" width="6" height="6"/>
			<rect x="375.3" y="394.5" class="st10" width="6" height="6"/>
			<rect x="438.5" y="432" class="st10" width="6" height="6"/>
			<rect x="501.7" y="375.8" class="st10" width="6" height="6"/>
			<rect x="564.9" y="432" class="st10" width="6" height="6"/>
		</g>
	</g>
	<g>
		<rect x="655.8" y="279.7" class="st11" width="6" height="6"/>
		<g>
			<rect x="185.7" y="282.1" class="st11" width="6" height="6"/>
			<rect x="248.9" y="357.1" class="st11" width="6" height="6"/>
			<rect x="312.1" y="272.7" class="st11" width="6" height="6"/>
			<rect x="375.3" y="319.6" class="st11" width="6" height="6"/>
			<rect x="438.5" y="347.7" class="st11" width="6" height="6"/>
			<rect x="501.7" y="385.2" class="st11" width="6" height="6"/>
			<rect x="564.9" y="432" class="st11" width="6" height="6"/>
		</g>
	</g>
	<g>
		<rect x="655.8" y="314.9" class="st12" width="6" height="6"/>
		<g>
			<rect x="185.7" y="385.2" class="st12" width="6" height="6"/>
			<rect x="248.9" y="357.1" class="st12" width="6" height="6"/>
			<rect x="312.1" y="422.7" class="st12" width="6" height="6"/>
			<rect x="375.3" y="432" class="st12" width="6" height="6"/>
			<rect x="438.5" y="413.3" class="st12" width="6" height="6"/>
			<rect x="501.7" y="403.9" class="st12" width="6" height="6"/>
			<rect x="564.9" y="432" class="st12" width="6" height="6"/>
		</g>
	</g>
	<g>
		<rect x="655.8" y="350" class="st13" width="6" height="6"/>
		<g>
			<rect x="185.7" y="338.3" class="st13" width="6" height="6"/>
			<rect x="248.9" y="328.9" class="st13" width="6" height="6"/>
			<rect x="312.1" y="375.8" class="st13" width="6" height="6"/>
			<rect x="375.3" y="357.1" class="st13" width="6" height="6"/>
			<rect x="438.5" y="413.3" class="st13" width="6" height="6"/>
			<rect x="501.7" y="432" class="st13" width="6" height="6"/>
			<rect x="564.9" y="432" class="st13" width="6" height="6"/>
		</g>
	</g>
</g>
<g>
	<g>
	</g>
	<text transform="matrix(1 0 0 1 693.3799 220.1865)" class="st2 st3">5</text>
	<text transform="matrix(1 0 0 1 693.3799 255.3398)" class="st2 st3">4</text>
	<text transform="matrix(1 0 0 1 693.3799 290.4927)" class="st2 st3">3</text>
	<text transform="matrix(1 0 0 1 693.3799 325.6455)" class="st2 st3">2</text>
	<text transform="matrix(1 0 0 1 693.3799 360.7988)" class="st2 st3">1</text>
</g>
<g>
	<text transform="matrix(1 0 0 1 555.3711 454.2617)" class="st2 st3">sat</text>
	<text transform="matrix(1 0 0 1 495.8584 454.2617)" class="st2 st3">fri</text>
	<text transform="matrix(1 0 0 1 426.5977 454.2617)" class="st2 st3">thu</text>
	<text transform="matrix(1 0 0 1 359.7109 454.2617)" class="st2 st3">wen</text>
	<text transform="matrix(1 0 0 1 300.7471 454.2617)" class="st2 st3">tue</text>
	<text transform="matrix(1 0 0 1 231.7871 454.2617)" class="st2 st3">mon</text>
	<text transform="matrix(1 0 0 1 173.1035 454.2617)" class="st2 st3">sun</text>
</g>
</svg>
