<?xml version="1.0" encoding="utf-8"?>
<!-- Generator: Adobe Illustrator 19.2.1, SVG Export Plug-In . SVG Version: 6.00 Build 0)  -->
<svg version="1.1" id="Слой_1" xmlns="http://www.w3.org/2000/svg" xmlns:xlink="http://www.w3.org/1999/xlink" x="0px" y="0px"
	 viewBox="0 0 841.9 595.3" style="enable-background:new 0 0 841.9 595.3;" xml:space="preserve">
<style type="text/css">
	.st0{fill:#564E4C;stroke:#FFFFFF;stroke-width:2;stroke-miterlimit:10;}
	.st1{fill:#DFBBB7;stroke:#FFFFFF;stroke-width:2;stroke-miterlimit:10;}
	.st2{fill:#4862AB;stroke:#FFFFFF;stroke-width:2;stroke-miterlimit:10;}
	.st3{fill:#C17975;stroke:#FFFFFF;stroke-width:2;stroke-miterlimit:10;}
	.st4{fill:#B3B348;stroke:#FFFFFF;stroke-width:2;stroke-miterlimit:10;}
	.st5{fill:#838467;stroke:#FFFFFF;stroke-width:2;stroke-miterlimit:10;}
	.st6{fill:#3D4866;stroke:#FFFFFF;stroke-width:2;stroke-miterlimit:10;}
	.st7{fill:#FFFFFF;stroke:#FFFFFF;stroke-width:2;stroke-miterlimit:10;}
</style>
<g>
	<g>
	</g>
	<g>
	</g>
	<g>
	</g>
	<g>
	</g>
	<g>
	</g>
	<g>
	</g>
	<g>
	</g>
</g>
<g>
	<g>
		<g>
			<g>
				<path class="st0" d="M232.3,255.7l-10.6-75.5c3.7-0.5,6.9-0.7,10.6-0.7V255.7z"/>
			</g>
		</g>
		<g>
			<g>
				<path class="st1" d="M232.3,255.7l-49-58.4c11.5-9.6,23.6-15,38.4-17.1L232.3,255.7z"/>
			</g>
		</g>
		<g>
			<g>
				<path class="st2" d="M232.3,255.7L157.2,269c-4.9-27.6,4.6-53.6,26.1-71.6L232.3,255.7z"/>
			</g>
		</g>
		<g>
			<g>
				<path class="st3" d="M232.3,255.7l-66,38.1c-4.7-8.1-7.4-15.7-9.1-24.9L232.3,255.7z"/>
			</g>
		</g>
		<g>
			<g>
				<path class="st4" d="M232.3,255.7l66,38.1c-21.1,36.5-67.7,49-104.1,27.9c-12.1-7-20.9-15.8-27.9-27.9L232.3,255.7z"/>
			</g>
		</g>
		<g>
			<g>
				<path class="st5" d="M232.3,255.7l49-58.4c28.6,24,35.7,64.1,17,96.5L232.3,255.7z"/>
			</g>
		</g>
		<g>
			<g>
				<path class="st6" d="M232.3,255.7v-76.2c18.7,0,34.7,5.8,49,17.8L232.3,255.7z"/>
			</g>
		</g>
	</g>
	<circle class="st7" cx="232.3" cy="255.7" r="32.9"/>
</g>
</svg>
